# xmcd
#
# Track frame offsets: 
#        150
#        6533
#        24994
#        41678
#        54614
#        73131
#        79035
#        95499
#        116477
#        132177
#        139929
#
# Disc length: 2819 seconds
#
# Revision: 0
# Processed by: cddbd v1.5.2PL0 Copyright (c) Steve Scherf et al.
# Submitted via: ExactAudioCopyFreeDBPlugin 1.0
#
DISCID=970b010b
DTITLE=Carlos Elliot Jr. - Raise The Fire America
DYEAR=2014
DGENRE=Blues
TTITLE0=The Heat On Fire
TTITLE1=Raise The Fire America
TTITLE2=Shake Your Body On The Dance Floor
TTITLE3=Ritual Fire
TTITLE4=Dance With Me
TTITLE5=Drums and Fire
TTITLE6=Right In Your Heart (Paramatma)
TTITLE7=Black, White or Native, We're All Americans
TTITLE8=Take A Ride With Me (T-Model Ford)
TTITLE9=Oh My Lord!
TTITLE10=Hill Country Stomp (RL Boyce)
EXTD=
EXTT0=
EXTT1=
EXTT2=
EXTT3=
EXTT4=
EXTT5=
EXTT6=
EXTT7=
EXTT8=
EXTT9=
EXTT10=
PLAYORDER=
